<svg xmlns="http://www.w3.org/2000/svg" xmlns:xlink="http://www.w3.org/1999/xlink" xmlns:svgjs="http://svgjs.com/svgjs" version="1.1" width="512" height="512" x="0" y="0" viewBox="0 0 512 512" style="enable-background:new 0 0 512 512" xml:space="preserve" class=""><g>
  <linearGradient xmlns="http://www.w3.org/2000/svg" id="SVGID_1_" gradientUnits="userSpaceOnUse" x1="0" y1="258.0001" x2="512.0002" y2="258.0001" gradientTransform="matrix(1 0 0 -1 0 514.0002)"><stop stop-opacity="1" stop-color="#5c93cc" offset="0"/><stop stop-opacity="1" stop-color="#83cde5" offset="1"/></linearGradient>
  <path xmlns="http://www.w3.org/2000/svg" style="fill:#FFFFFF" d="M506.134,241.843c-0.006-0.006-0.011-0.013-0.018-0.019l-104.504-104  c-7.829-7.791-20.492-7.762-28.285,0.068c-7.792,7.829-7.762,20.492,0.067,28.284L443.558,236H20c-11.046,0-20,8.954-20,20  s8.954,20,20,20h423.557l-70.162,69.824c-7.829,7.792-7.859,20.455-0.067,28.284c7.793,7.831,20.457,7.858,28.285,0.068l104.504-104  c0.006-0.006,0.011-0.013,0.018-0.019C513.968,262.339,513.943,249.635,506.134,241.843z" fill=""/>
  </g>
</svg>