<?xml version="1.0" encoding="UTF-8" standalone="no"?>
<!-- Generator: Adobe Illustrator 19.0.0, SVG Export Plug-In . SVG Version: 6.00 Build 0)  -->

<svg
   version="1.1"
   id="Capa_1"
   x="0px"
   y="0px"
   viewBox="0 0 58 58"
   style="enable-background:new 0 0 58 58;"
   xml:space="preserve"
   sodipodi:docname="creditcard.svg"
   inkscape:version="1.1 (c68e22c387, 2021-05-23)"
   xmlns:inkscape="http://www.inkscape.org/namespaces/inkscape"
   xmlns:sodipodi="http://sodipodi.sourceforge.net/DTD/sodipodi-0.dtd"
   xmlns="http://www.w3.org/2000/svg"
   xmlns:svg="http://www.w3.org/2000/svg"><defs
   id="defs47" /><sodipodi:namedview
   id="namedview45"
   pagecolor="#ffffff"
   bordercolor="#999999"
   borderopacity="1"
   inkscape:pageshadow="0"
   inkscape:pageopacity="0"
   inkscape:pagecheckerboard="0"
   showgrid="false"
   inkscape:zoom="12.982759"
   inkscape:cx="14.403718"
   inkscape:cy="29"
   inkscape:window-width="1920"
   inkscape:window-height="1019"
   inkscape:window-x="0"
   inkscape:window-y="30"
   inkscape:window-maximized="1"
   inkscape:current-layer="Capa_1" />
<g
   id="XMLID_69_">
	<path
   id="XMLID_115_"
   style="fill:#F0C41B;"
   d="M54.783,50H3.217C1.44,50,0,48.56,0,46.783V11.217C0,9.44,1.44,8,3.217,8h51.566   C56.56,8,58,9.44,58,11.217v35.566C58,48.56,56.56,50,54.783,50" />
	<rect
   id="XMLID_114_"
   y="13"
   style="fill:#806F5E;"
   width="58"
   height="8" />
	<path
   id="XMLID_113_"
   style="fill:#F9EAB0;"
   d="M15,28H6c-0.552,0-1-0.448-1-1s0.448-1,1-1h9c0.552,0,1,0.448,1,1S15.552,28,15,28" />
	<path
   id="XMLID_112_"
   style="fill:#F9EAB0;"
   d="M28,28h-9c-0.552,0-1-0.448-1-1s0.448-1,1-1h9c0.552,0,1,0.448,1,1S28.552,28,28,28   " />
	<path
   id="XMLID_111_"
   style="fill:#F9EAB0;"
   d="M7,33H6c-0.552,0-1-0.448-1-1s0.448-1,1-1h1c0.552,0,1,0.448,1,1S7.552,33,7,33" />
	<path
   id="XMLID_110_"
   style="fill:#F9EAB0;"
   d="M13,33h-2c-0.552,0-1-0.448-1-1s0.448-1,1-1h2c0.552,0,1,0.448,1,1S13.552,33,13,33   " />
	<path
   id="XMLID_109_"
   style="fill:#F9EAB0;"
   d="M18,33h-1c-0.552,0-1-0.448-1-1s0.448-1,1-1h1c0.552,0,1,0.448,1,1S18.552,33,18,33   " />
	<path
   id="XMLID_108_"
   style="fill:#F9EAB0;"
   d="M24,33h-2c-0.552,0-1-0.448-1-1s0.448-1,1-1h2c0.552,0,1,0.448,1,1S24.552,33,24,33   " />
	<path
   id="XMLID_107_"
   style="fill:#F9EAB0;"
   d="M28,33c-0.26,0-0.52-0.11-0.71-0.29C27.11,32.52,27,32.27,27,32   c0-0.26,0.11-0.52,0.29-0.71c0.37-0.37,1.04-0.37,1.42,0C28.89,31.48,29,31.74,29,32s-0.11,0.52-0.29,0.71   C28.52,32.89,28.26,33,28,33" />
	
	
</g>
<g
   id="g14">
</g>
<g
   id="g16">
</g>
<g
   id="g18">
</g>
<g
   id="g20">
</g>
<g
   id="g22">
</g>
<g
   id="g24">
</g>
<g
   id="g26">
</g>
<g
   id="g28">
</g>
<g
   id="g30">
</g>
<g
   id="g32">
</g>
<g
   id="g34">
</g>
<g
   id="g36">
</g>
<g
   id="g38">
</g>
<g
   id="g40">
</g>
<g
   id="g42">
</g>
</svg>
